<svg id="Слой_1" data-name="Слой 1" xmlns="http://www.w3.org/2000/svg" viewBox="0 0 392.48 662.59"><defs><style>.cls-1{fill:#ffc5a6;}.cls-2{fill:#ff7272;}.cls-3{fill:#ffa3bb;}.cls-4{fill:#f77979;}.cls-5{fill:#ffa918;}.cls-6{fill:#c23b3a;}.cls-7{fill:#b6bfd4;}.cls-8{fill:#ffa3ab;}.cls-9{fill:#d94746;}.cls-10{fill:#4b8ca8;}.cls-11{fill:#bf3545;}.cls-12{fill:#d94153;}.cls-13{fill:#ffbac0;}.cls-14{fill:#fdc87c;}.cls-15{fill:#b34766;}.cls-16{fill:#a33a59;}</style></defs><path class="cls-1" d="M386.21,421.19c-3.72-29-10.78-32.7-16.36-62.94-8.91-48.21-12.41-46-12.3-70.9.13-31-16.16-58.62-37.68-71.66-10-6.05-34.48-11.8-49.09-18.75-25.69-12.23-38.33-23-41.74-37.7-2.82-12.17-6.78-39.43-3.47-47.34C230.34,100.48,239,92.56,242,83.12c6.91-21.75,2.34-41.33-1.44-49.48C231.24,13.45,207.36,0,176.83,0,158.34,0,145,5,133.43,13.24c-12.24,8.68-22.23,20.88-23.38,34.39-.91,10.79,7.34,12.79,5.34,25.74-.78,5.07-6.31,14.64-9,20.35-3.05,6.58-2.92,9.08,2.12,11,2.51,1,8.58.88,8.33,4.62-.28,4-3.68,8.14-1.19,9.92,1.08.77,6.86,1.52,5.74,2.31-.81.57-7.46,1-4.31,5.49,4.58,6.54-1.23,15.37,5.26,20,12.13,8.56,38-9.62,38.47-2.5.37,5.34,1.42,16.72-1.15,22.82-6.88,16.31-12.3,17.36-38,29.59-14.62,7-39.09,12.71-49.09,18.76-21.53,13-37.81,40.64-37.68,71.65.1,24.86-3.39,22.7-12.3,70.91C17.05,388.5,10,392.15,6.28,421.2,3.08,446.12,1.65,460.8,0,479.4c-1.14,13.1,41.34,22.82,47.78,8.28,2.33-5.24,14.11-40.15,18.41-72.52,7.36-55.49,30.8-103.82,31.05-96.69,0,0,6.83,45.66,6.73,62.51-.35,67.31-7.72,67.31-7.41,100.76.21,22.5-5.65,47.4-7.06,71C86.16,609.18,92,647.48,92,655s87,11.14,88.95,2.61c4-17,15.29-82,15.29-82s11.34,65,15.3,82c2,8.53,88.94,4.94,88.94-2.61s5.85-45.86,2.48-102.34c-1.4-23.57-7.26-48.46-7-71,.3-33.45-7.06-33.45-7.42-100.76-.09-16.85,6.74-62.51,6.74-62.51.24-7.13,23.68,41.19,31,96.69,4.3,32.37,16.09,67.28,18.41,72.52,6.45,14.54,48.93,4.83,47.78-8.28-1.63-18.6-3.06-33.28-6.25-58.2Z"/><path class="cls-2" d="M174,79.08s14.79,13.25,26,11.63,12.67-6.33,17.15-11.86,4.06-13.14.94-15S172.13,72.35,174,79.09Z"/><path class="cls-3" d="M222.26,36.4c-2.23-5.25-5.54-5.76-7.22-6.46-.22-3.76-2.13-8.29-5.93-10.28-2.91-1.52-6.91-2.62-9.91-1.18,0-2.06-14.74-14.21-25.26-2.6a8,8,0,0,0-12.3-.45,10.73,10.73,0,0,0-8.54-1,10.34,10.34,0,0,0-7.66,8.15,13,13,0,0,0-1.92.38c-4.85,1.38-8.18,5.33-8.46,9.54-4.34.55-8.38,4.11-9.9,9.27-1.59,5.36,0,10.81,3.6,13.63-.86,3.68.19,7.41,3,9.47a7.53,7.53,0,0,0,2.95,1.28,11.87,11.87,0,0,0,2.16,8.22c2.83,4,7.54,5.7,11.54,4.52a10.76,10.76,0,0,0,9,4.62,11.15,11.15,0,0,0,6-1.72,12.68,12.68,0,0,0,7.74,2.56,12.48,12.48,0,0,0,8.8-3.48,8.27,8.27,0,0,0,6.81-1.28c2.21,3.16,15.38,3.55,16.51-5.9a14.42,14.42,0,0,0,13.8-2.86,11.29,11.29,0,0,0,3-13.11,9.16,9.16,0,0,0,3.34-6.34,8.63,8.63,0,0,0-2.32-6.54,7.94,7.94,0,0,0,1.21-8.41Z"/><path class="cls-1" d="M171.14,85.3a13.7,13.7,0,0,1-7.79-2.38,12.11,12.11,0,0,1-5.94,1.53A11.75,11.75,0,0,1,148,80a11.74,11.74,0,0,1-11.93-5.06,12.86,12.86,0,0,1-2.41-8,8.36,8.36,0,0,1-2.48-1.24,9.88,9.88,0,0,1-3.51-9.88c-3.67-3.24-5.06-8.9-3.47-14.3,1.5-5.06,5.45-8.92,10-9.83.65-4.44,4.2-8.25,9.09-9.64a13.36,13.36,0,0,1,1.35-.3,11.51,11.51,0,0,1,8.22-8.23,11.73,11.73,0,0,1,8.63.77,9,9,0,0,1,12.5.22c6.27-6.21,13.54-4.65,17.4-3.11,3.57,1.42,7.09,4,8.32,5.9,3.79-1.25,8.09.63,9.85,1.55,4.17,2.18,6,6.85,6.41,10.46l.13,0c1.86.66,5,1.76,7.06,6.73a8.63,8.63,0,0,1-.87,8.75,9.39,9.39,0,0,1,2.06,6.67A10,10,0,0,1,221.21,58a12.49,12.49,0,0,1-3.53,13.6A15.23,15.23,0,0,1,204,74.9c-.83,3.57-3.5,6.16-7.48,7.19-3.74,1-8,.37-9.93-1.27a9.23,9.23,0,0,1-6.39,1.08,13.57,13.57,0,0,1-9.08,3.4Zm-7.74-4.53a1,1,0,0,1,.58.2,11.79,11.79,0,0,0,7.16,2.36,11.57,11.57,0,0,0,8.12-3.2.94.94,0,0,1,.9-.25,7.28,7.28,0,0,0,6-1.13,1,1,0,0,1,1.34.23c.8,1.15,4.61,2.22,8.52,1.2,2.1-.54,5.7-2.12,6.24-6.65a1,1,0,0,1,1.29-.8,13.37,13.37,0,0,0,12.85-2.68,10.33,10.33,0,0,0,2.74-11.93,1,1,0,0,1,.26-1.21,8.07,8.07,0,0,0,3-5.65,7.53,7.53,0,0,0-2.09-5.8,1,1,0,0,1-.05-1.24,7,7,0,0,0,1.1-7.43c-1.77-4.18-4.17-5-5.92-5.65-.29-.1-.55-.19-.78-.29a1,1,0,0,1-.6-.85c-.19-3.41-2-7.66-5.41-9.47-1.29-.67-5.75-2.75-9-1.16a1,1,0,0,1-.93-.06,1,1,0,0,1-.45-.83c-.26-.8-4.54-4.85-10.28-6.17a13,13,0,0,0-13.31,4.23,1,1,0,0,1-.74.32,1,1,0,0,1-.71-.37,7.1,7.1,0,0,0-10.86-.39.93.93,0,0,1-1.2.16,9.79,9.79,0,0,0-7.78-.93,9.42,9.42,0,0,0-7,7.34c0,.44-2,1-2.61,1.19-4.3,1.22-7.5,4.78-7.76,8.66a1,1,0,0,1-.84.91c-4.08.51-7.73,4-9.1,8.57-1.44,4.86-.13,9.91,3.27,12.57a1,1,0,0,1,.35,1c-.8,3.43.21,6.67,2.64,8.44a6.41,6.41,0,0,0,2.57,1.12,1,1,0,0,1,.76,1.08,10.8,10.8,0,0,0,2,7.52c2.54,3.59,6.76,5.26,10.49,4.15a1,1,0,0,1,1.06.39,9.81,9.81,0,0,0,8.19,4.2,10.13,10.13,0,0,0,5.49-1.58,1,1,0,0,1,.51-.15Z"/><path class="cls-1" d="M148.82,30.17a.9.9,0,0,1-.47-.13,7.81,7.81,0,0,1-3.86-7.64,1,1,0,1,1,1.9.28,5.85,5.85,0,0,0,2.91,5.66,1,1,0,0,1,.36,1.33,1,1,0,0,1-.84.5Z"/><path class="cls-1" d="M162.6,24.65a1,1,0,0,1-.79-.42,1,1,0,0,1,.23-1.37c1.29-.93,1.93-1.89,1.9-2.86-.06-1.66-2-3.26-2.81-3.73a1,1,0,0,1-.32-1.35,1,1,0,0,1,1.33-.33c.14.09,3.62,2.27,3.73,5.33.06,1.67-.86,3.2-2.71,4.54a1,1,0,0,1-.56.18Z"/><path class="cls-1" d="M138.51,40.13a.75.75,0,0,1-.32-.06,1,1,0,0,1-.58-1.25c.58-1.64.58-2.93,0-3.82a4.33,4.33,0,0,0-3-1.56,1,1,0,0,1-.9-1,1,1,0,0,1,1-.92,6.24,6.24,0,0,1,4.53,2.42c.93,1.44,1,3.31.2,5.58a1,1,0,0,1-.91.64Z"/><path class="cls-1" d="M132.09,57.13a8.12,8.12,0,0,1-3.82-.92,1,1,0,0,1-.33-1.35.94.94,0,0,1,1.31-.34c.2.11,4.26,2.4,8.46-2.15a1,1,0,0,1,1.36,0,1,1,0,0,1,0,1.39A9.41,9.41,0,0,1,132.09,57.13Z"/><path class="cls-1" d="M134.72,67.1a.84.84,0,0,1-.27,0,1,1,0,0,1-.66-1.21c.06-.21,1.52-5.14,5.79-5.32a1,1,0,0,1,1,.94,1,1,0,0,1-.92,1c-2.88.12-4,3.87-4,3.91a1,1,0,0,1-.92.7Z"/><path class="cls-1" d="M148.42,79.83a1,1,0,0,1-.87-.56A1,1,0,0,1,148,78a4.45,4.45,0,0,0,2.19-2.49,3.54,3.54,0,0,0-.92-2.91,1,1,0,0,1,.17-1.38,1,1,0,0,1,1.36.17,5.44,5.44,0,0,1,1.27,4.58,6.39,6.39,0,0,1-3.23,3.79.9.9,0,0,1-.42.1Z"/><path class="cls-1" d="M163.4,82.74a1,1,0,0,1-.68-.29c-1.1-1.11-2.76-3.92-1.13-6.57a1,1,0,0,1,1.32-.3,1,1,0,0,1,.31,1.35c-1.22,2,.77,4,.85,4.13a1,1,0,0,1,0,1.39,1,1,0,0,1-.68.29Z"/><path class="cls-1" d="M179.93,81.81a.94.94,0,0,1-.7-.31,1,1,0,0,1,.05-1.38,3.42,3.42,0,0,0,1-2.11,2.61,2.61,0,0,0-1-1.89,1,1,0,0,1-.05-1.38,1,1,0,0,1,1.36,0A4.51,4.51,0,0,1,182.17,78a5.33,5.33,0,0,1-1.58,3.53,1,1,0,0,1-.66.26Z"/><path class="cls-1" d="M186.75,80.54a.93.93,0,0,1-.74-.36,4.74,4.74,0,0,1,.27-6.23,1,1,0,0,1,1.36-.06,1,1,0,0,1,.06,1.39,2.79,2.79,0,0,0-.2,3.66,1,1,0,0,1-.14,1.38.94.94,0,0,1-.61.22Z"/><path class="cls-1" d="M210.78,36.31a1,1,0,0,1-.23-1.93A4.61,4.61,0,0,0,214.08,30a1,1,0,0,1,.95-1,1,1,0,0,1,1,1,6.53,6.53,0,0,1-5,6.36.91.91,0,0,1-.23,0Z"/><path class="cls-1" d="M196,24.65a1,1,0,0,1-1-.93,6.09,6.09,0,0,1,3.88-6.17,1,1,0,0,1,1.22.62,1,1,0,0,1-.61,1.24,4.16,4.16,0,0,0-2.57,4.21,1,1,0,0,1-.91,1Z"/><path class="cls-1" d="M216.8,47.33a7.91,7.91,0,0,1-2-.26,1,1,0,0,1-.7-1.2,1,1,0,0,1,1.17-.7,5.76,5.76,0,0,0,5.11-1.09,1,1,0,0,1,1.36.08,1,1,0,0,1-.07,1.38,7.68,7.68,0,0,1-4.9,1.78Z"/><path class="cls-1" d="M220,58.67a1,1,0,0,1-.8-.43c-.16-.22-1.61-2.14-4.53-.33a1,1,0,0,1-1.32-.32,1,1,0,0,1,.32-1.35c3.66-2.28,6.27-.41,7.13.9a1,1,0,0,1-.27,1.36A1,1,0,0,1,220,58.67Z"/><path class="cls-1" d="M203.26,74.64a1,1,0,0,1-.34-.06,1,1,0,0,1-.62-.92,4.56,4.56,0,0,0-1.09-2.93,2.28,2.28,0,0,0-1.88-.46,1,1,0,0,1-1.08-.85,1,1,0,0,1,.84-1.09,4.05,4.05,0,0,1,3.39.94,4.93,4.93,0,0,1,1.33,2.11,10.87,10.87,0,0,0,2.25-7.17,10.43,10.43,0,0,0-3.4-6.53,1,1,0,0,1-.3-1.11c3-8.36-2.62-11.82-2.86-12a1,1,0,0,1-.38-1.31c3.1-6-1-11.73-4-14.13a9.23,9.23,0,0,0-5.51-1.87,1,1,0,0,1-1-.7c-3.38-11.58-14.12-9.84-14.58-9.76a1,1,0,0,1-1.11-.79,1,1,0,0,1,.78-1.14c.13,0,12.43-2.07,16.55,10.45a10.78,10.78,0,0,1,6,2.29c3.27,2.67,7.8,8.92,4.82,15.8,1.73,1.39,5.68,5.58,3.19,13.18A12.07,12.07,0,0,1,208,64c.3,3.43-1,6.9-4,10.3a1,1,0,0,1-.72.33Z"/><path class="cls-1" d="M200,34.79a1,1,0,0,1-.6-.21,1,1,0,0,1-.15-1.38A11,11,0,0,1,209,29.52a1,1,0,0,1-.22,2,9.07,9.07,0,0,0-8.08,2.95,1,1,0,0,1-.76.36Z"/><path class="cls-1" d="M203.26,32.46a.93.93,0,0,1-.59-.21,1,1,0,0,1-.17-1.38c1.75-2.28-.89-4.68-1-4.79a1,1,0,0,1-.1-1.38,1,1,0,0,1,1.36-.1c1.44,1.27,3.55,4.47,1.26,7.48a1,1,0,0,1-.76.38Z"/><path class="cls-1" d="M214.66,53.81a1,1,0,0,1-.29-.05,1,1,0,0,1-.64-1.23c2.11-6.91-3.22-9.11-3.45-9.2a1,1,0,0,1-.55-1.27A1,1,0,0,1,211,41.5c.07,0,7.26,2.91,4.61,11.62a1,1,0,0,1-.92.69Z"/><path class="cls-1" d="M137.17,47.32a1,1,0,0,1-.93-.7c0-.08-2.41-8.74,8.88-12.37a1,1,0,0,1,1.21.64,1,1,0,0,1-.63,1.23c-9.5,3.05-7.69,9.66-7.61,9.94a1,1,0,0,1-.64,1.22,1.45,1.45,0,0,1-.28,0Z"/><path class="cls-1" d="M143.64,66.18a1,1,0,0,1-.46-.12c-6.28-3.48-5.76-12.69-5.74-13.08a1,1,0,1,1,1.93.13c0,.08-.46,8.35,4.73,11.23a1,1,0,0,1-.46,1.84Z"/><path class="cls-1" d="M196,72.94a1,1,0,0,1-.79-.41,1,1,0,0,1,.23-1.37c5.45-3.92,3.42-9.24,3.4-9.3a1,1,0,0,1,.53-1.27.94.94,0,0,1,1.25.54,10.07,10.07,0,0,1-4.07,11.63,1,1,0,0,1-.56.18Z"/><path class="cls-1" d="M165.35,77.31a10.71,10.71,0,0,1-8.85-4.85,1,1,0,0,1,.34-1.34,1,1,0,0,1,1.32.34c.15.26,3.67,6,11.41,3a1,1,0,0,1,1.25.57,1,1,0,0,1-.56,1.27A13.65,13.65,0,0,1,165.35,77.31Z"/><path class="cls-1" d="M184.76,32.45a1,1,0,0,1-.91-.64,4.69,4.69,0,0,1,.41-3.68c.88-1.49,2.64-2.43,5.23-2.78a1,1,0,0,1,1.08.84,1,1,0,0,1-.83,1.1c-1.93.27-3.26.9-3.83,1.84a2.63,2.63,0,0,0-.24,2,1,1,0,0,1-.59,1.25A1.25,1.25,0,0,1,184.76,32.45Z"/><path class="cls-1" d="M195.52,47.46A7.25,7.25,0,0,1,191,45.57a1,1,0,0,1-.14-1.37,1,1,0,0,1,1.35-.15,5,5,0,0,0,4,1.4,5.08,5.08,0,0,0,3-2.2,1,1,0,0,1,1.33-.32,1,1,0,0,1,.32,1.34,7.06,7.06,0,0,1-4.34,3.11,5.86,5.86,0,0,1-.94.08Z"/><path class="cls-1" d="M194.37,61.46a1,1,0,0,1-1-1,5.79,5.79,0,0,1,2.19-4.4c1.82-1.31,4.5-1.34,8-.09a1,1,0,0,1,.58,1.26,1,1,0,0,1-1.23.59c-2.79-1-4.94-1.07-6.21-.17a3.81,3.81,0,0,0-1.38,2.81,1,1,0,0,1-1,1Z"/><path class="cls-1" d="M173.35,23.53a1,1,0,0,1-.89-.61c-2.31-5.76.85-7.8,1-7.88a1,1,0,0,1,1.32.33,1,1,0,0,1-.31,1.34c-.1.07-1.86,1.38-.22,5.47a1,1,0,0,1-.52,1.28,1,1,0,0,1-.36.07Z"/><path class="cls-1" d="M184.6,48.6a1,1,0,0,1-.88-.59c-1.38-3.26-1.41-6.07-.11-8.34,2.35-4.12,8.21-4.81,8.46-4.83a1,1,0,0,1,1.06.86,1,1,0,0,1-.85,1.09c-.05,0-5.15.61-7,3.88-1,1.7-.9,3.91.22,6.57a1,1,0,0,1-.51,1.28.84.84,0,0,1-.38.08Z"/><path class="cls-1" d="M184,41.74l-.22,0c-.24-.06-5.79-1.45-7.6-5.66-1-2.25-.68-4.82.87-7.64a1,1,0,0,1,1.31-.38,1,1,0,0,1,.37,1.34c-1.24,2.25-1.5,4.23-.79,5.89,1.42,3.31,6.24,4.53,6.29,4.54a1,1,0,0,1,.71,1.18,1,1,0,0,1-.93.75Z"/><path class="cls-1" d="M163.62,34.4a9.42,9.42,0,0,1-5.48-2.12c-6.1-4.36-4-11.42-4-11.5a1,1,0,0,1,1.2-.64,1,1,0,0,1,.64,1.22,8.68,8.68,0,0,0,3.28,9.31c2.59,1.86,5.31,3.18,10-1a.94.94,0,0,1,1.35.1,1,1,0,0,1-.1,1.38c-2.68,2.37-4.95,3.24-6.93,3.24Z"/><path class="cls-1" d="M176.5,68.93c-6.95,0-12.26-6.21-12.32-6.29a1,1,0,0,1,.1-1.38,1,1,0,0,1,1.36.1c.32.38,7.94,9.25,16.38,3.92,2.9-1.82,4.58-3.84,5-6a5.63,5.63,0,0,0-.8-4.09,1,1,0,0,1,.2-1.37,1,1,0,0,1,1.34.2,7.58,7.58,0,0,1,1.16,5.59c-.51,2.73-2.48,5.21-5.87,7.35a12.13,12.13,0,0,1-6.54,2Z"/><path class="cls-1" d="M152.64,59.25a.9.9,0,0,1-.42-.1c-1.86-.92-3.2-2.89-3.78-5.55a13.14,13.14,0,0,1,2-10.45c5.32-6.75,13.12-3.32,13.2-3.28a1,1,0,0,1,.48,1.3,1,1,0,0,1-1.26.5c-.28-.13-6.55-2.84-10.92,2.71a11.25,11.25,0,0,0-1.65,8.8,5.85,5.85,0,0,0,2.75,4.21,1,1,0,0,1,.44,1.31,1,1,0,0,1-.87.56Z"/><path class="cls-1" d="M175.57,59.25a1,1,0,0,1-.95-.87c-.39-3.27-1.68-5.69-3.85-7.17C166.1,48,158.79,50,158.72,50a1,1,0,0,1-1.19-.68,1,1,0,0,1,.67-1.21c.34-.09,8.22-2.27,13.64,1.43,2.65,1.81,4.23,4.7,4.69,8.57a1,1,0,0,1-.85,1.09Z"/><path class="cls-1" d="M167,49.39a1.06,1.06,0,0,1-.42-.09,1,1,0,0,1-.44-1.32c.76-1.58-.6-3.65-.62-3.67a1,1,0,0,1,.25-1.36.93.93,0,0,1,1.33.25c.09.12,2,3,.76,5.64a1,1,0,0,1-.86.55Z"/><path class="cls-1" d="M174,53.81a1,1,0,0,1-.78-.4,1,1,0,0,1,.2-1.37c.13-.1,3.14-2.34,5.94-1.37a1,1,0,0,1-.62,1.86c-1.84-.64-4.15,1.07-4.17,1.09a1,1,0,0,1-.57.19Z"/><path class="cls-1" d="M149.82,45.68a.83.83,0,0,1-.37-.08c-3.22-1.36-5.2-.13-5.29-.08a1,1,0,0,1-1.32-.29,1,1,0,0,1,.27-1.35c.11-.08,2.86-1.87,7.07-.09a1,1,0,0,1,.52,1.29,1,1,0,0,1-.89.6Z"/><path class="cls-1" d="M158.46,64.79a1,1,0,0,1,0-2s4.81,0,7-2.57a4.77,4.77,0,0,0,1-3.95,1,1,0,0,1,.82-1.11,1,1,0,0,1,1.09.84,6.75,6.75,0,0,1-1.43,5.52C164.13,64.75,158.69,64.79,158.46,64.79Z"/><path class="cls-1" d="M188.36,69.3c-4.7,0-6.52-2.48-6.61-2.61a1,1,0,0,1,.22-1.37,1,1,0,0,1,1.34.22c.1.13,2.14,2.71,8.05,1.46a1,1,0,0,1,1.14.76,1,1,0,0,1-.74,1.16A16.34,16.34,0,0,1,188.36,69.3Z"/><path class="cls-4" d="M221.36,330.44A26,26,0,0,0,204,342.57c-.75,1.19-5,11.7-12.6,6.58-5.95-4-6.37-19.1-6.37-19.1-.1-2.77-5.53-.48-5.79,2.29-.42,4.39-1.57,14.47,3.43,23.4,4.34,7.73,9.13,10.15,12.57,12.81,5.93,4.58,7.67,8.67,8,12.22,2.27,22.65-19.35,14.28-31,20.9-12.54,7.13-16.2,21.29-16.84,23.57-.77,2.74,5.19,6.16,7.85,2.62,3.07-4.09,9.69-14.43,18.22-11.36S207,436.24,235,421.25c31.64-16.9,23.59-50.57,20.08-63.06-6.41-22.76-19.74-30.28-33.77-27.75Z"/><path class="cls-5" d="M184,333.31s8.37-1.63,15.08-.66c4.75.69,16.06,15.06,17.45,22.71s.74,8.57-2.4,11.24-24.49,9.46-26.78,8.57S184,333.31,184,333.31Z"/><path class="cls-6" d="M188.52,332.67s-27.12-6-42.44,8.93c-16.39,16-5.22,27.77-3.79,37.42,1.82,12.26,10.21,23.13,17.28,23.63s12.29-7.67,17.36-11.41,26.24-18.08,26.51-20C204.61,362.68,197.75,336.67,188.52,332.67Z"/><path class="cls-6" d="M193.2,332.33c-.29-.47,5.93-1.53,17-1s17.76,3.45,19.73,4.3c8.43,3.63,2,9-.35,14-1.51,3.25-2.29,11-7.74,14.72-8.53,5.88-15.47,6.49-15.43,5.43C207.36,347.2,194.6,334.68,193.2,332.33Z"/><path class="cls-7" d="M214.34,251.31c-9.71-7.24-16.36-14.74-15.81-25.58s.93-47.53,3-61.76c1-6.6-12.34-7.17-12.78-.7-.13,1.89.89,6.76,1.46,18.16.83,16.5.32,36.17.15,43.17-.28,11.83-3.54,18.85-14.08,26.71-12.25,9.12-16.91,13.33-17.18,18.62-.18,3.53,6.57,3.72,6.57,1.49s3.48-8.57,11.7-12.29c7.18-3.26,12.82-10.4,17.92-10.78s10.74,7.52,17.93,10.78c8.22,3.72,11.69,10.05,11.69,12.29s6.76,2,6.58-1.49c-.27-5.29-4.93-9.5-17.18-18.62Z"/><path class="cls-8" d="M130.18,260.72c-6.94,30.25-29,42-18.54,75.24,10.87,34.42,30.07,28.71,49.44,15.47,31-21.19,26.94-44.08,24.92-71.2-.57-7.57-1.47-24.13-3.18-35.37-5.4-35.6-43.37-24.47-52.63,15.86Z"/><path class="cls-8" d="M257.6,260.72c6.95,30.25,29,42,18.55,75.24-10.87,34.42-30.07,28.71-49.44,15.47-31-21.19-26.94-44.08-24.92-71.2.57-7.57,1.47-24.13,3.18-35.37,5.4-35.6,43.37-24.47,52.63,15.86Z"/><path class="cls-9" d="M208.53,279c-5.25-3.39-12.21-.79-15.33-3.77-1.84-1.75,2.12-11.64,9.91-15.3l.68-5.46c-13.83.57-19.37,15.11-22,16.8-2.47,1.58-8.35-2-6.85-9,.23-1.11-4.62-1.43-5.83-.21s-4.22,13.62.89,20.43c-2.62,1.41-6.21,2.88-7.69,5-8.25,12-3.71,23,5.38,39.59,6.52,11.92,6,22.57,15.52,23.95,11.52,1.66,24-6.62,30.57-22.39,5.94-14.32,7.44-41.52-5.22-49.72Z"/><path class="cls-10" d="M195.08,285c1.69-2.64,4.35-7.34,4.47-11.35.14-4.16,8.2-2.72,9.2,1.57,1.27,5.46,2,17.12-2.85,21.54-2.58,2.34-8.69,2.79-11.73.18C189.42,292.89,193.47,287.51,195.08,285Z"/><path class="cls-10" d="M159.31,280s1,13,8.33,17.32c3.55,2.09,8.6,0,10.32-2.79,2.13-3.5,1.21-6.08-.88-7.35-5.59-3.42-9.34-7.81-10.81-10.54-1.18-2.19-2.8-2.21-4.67-1.38A4.27,4.27,0,0,0,159.31,280Z"/><path class="cls-11" d="M152.29,519.69c1.9,0,13.74,21,23.45,10.29,0,0,6.19,6.48,18.84,1,1.09-.47,14.29,14.44,36.12-11.71,0,0,29.49-14.25,35.28-32.35s7.21-27.92,3.24-40.19-50.31-18.5-59.92-16.95-60.61,2-73.43,13.89-6.35,75.74,16.42,76Z"/><path class="cls-12" d="M260.54,439.19s-14.89,18.31-25.71,25.06a130.54,130.54,0,0,1-31.26,14.49c-11.37,3.66-2.95,30.65,24.29,16.85s35.92-22,39.69-30.38,1.8-13.69,1.8-13.69S245,474,229.71,481.67c-11.78,5.92-4.69-1.38,1.84-5.5,12.51-7.9,21.2-11.37,34.4-28.91S260.54,439.19,260.54,439.19Z"/><path class="cls-12" d="M231.55,496.56c-9.48,8-29.22,23.13-35.84,35,2.64,1.64,9.55,6,19.95.71,4-7.14,10.63-19.85,15.89-21.46,3.84-1.17-.38,5.94-4.72,12.81,1.25-1.3,2.54-2.72,3.86-4.3A115.64,115.64,0,0,0,246.08,510c4.8-17-4.18-22.16-14.53-13.41Z"/><path class="cls-12" d="M137,459.26s-.7,3.3,5.95,6.78c5.44,2.84,19.1,2.51,16,3.89-6.8,3.05-25.21-4.74-28.8-2.31s-10.53,17.37,5.34,17.85S166,478,170.18,473.22c8.67-10-16.73-22.23-24.17-25.37-9.09-3.82-6.81,12.31-9,11.41Z"/><path class="cls-12" d="M219.83,448.32s-7.4,24.19,6.53,19.29,16.86-28.3,16.86-28.3a30.85,30.85,0,0,0-7.11.18c-.92.13-8.74,17.84-9.75,18.07-2.21.51,2.26-16.21,0-14.94A20.52,20.52,0,0,0,219.83,448.32Z"/><path class="cls-12" d="M190.39,507.33c-9,5.51-29.95,11.26-24.47,1.28,6.08-11.06,12.33-34-5.13-24.33-15,8.29-17.13,24.77-19.61,29.26,3.11,3.79,15.29-18.72,19.21-20.48,4.44-2-9.46,12.73-7.59,24.53,1,6.44,6.59,12.14,13.83,14.82,3,1.12,13.88-11.25,18.54-13.61,5.22-2.63-7.43,13.26-3.4,14.07,2.16-.48,8.8.27,9.62-.69,9-10.53,5.71-29-1-24.86Z"/><path class="cls-12" d="M208.74,450.13s-2.67,28.87-11.37,26.44,1.55-16.35,1.28-22.84-8.88,14.65-13.48,15.25-5.61-14.54,0-18.85,23-5.6,23.57,0Z"/><path class="cls-8" d="M136.31,429.63s-2-8.69-11.73-6.38c-11.32,2.69-14.69,19.12-8.06,27.6,0,0-18.8,8-2.92,26,0,0-9.56,14.1,8,25,0,0-8.7,17,11.86,23.87,0,0-8.41,13.33,10.4,17.77,0,0,12.3,27.85,20.2,14.28,3.61-6.21-1.47-19.2-6.24-20.09,0,0,13.26-12.06-2.94-20.57,0,0,8-22.77-12.21-23.17,0,0,13.7-14.55-5.68-22.56,0,0,11.12-7.07,5.95-16.45,0,0,12.93,6.67,21-6.46,0,0,7.87,14.31,21.92,4.61,0,0,14,13.42,25.64.57,0,0,16,1.23,20.44-10.79,0,0,13.28,7.22,21.84-5.79,0,0-.28,9,10.64,14.77,0,0-14.59,13.5-5.42,24.32,0,0-19.93,3.89-9.32,22.6,0,0-20,6-13.36,17.33,0,0-20.14-2.21-18.44,12.24,0,0-19.21-14.71-30,4.68,0,0-15.94,7.24-3.12,26.29,0,0,3.33,25,13.17,19.42,5.83-3.27,1.61-14.4.79-16.32l-.82-1.91s6.84-5.44,2-14.89c0,0,16.17,10.75,27-2.67,0,0,21.69,6.26,26.78-13.67,0,0,18.91-1.8,14.15-22.35,0,0,20.18-9.75,12.65-28,0,0,16.56-10-1.4-35.14,0,0,.7-34.24-25.61-23.5,0,0-17.32-18-26.17,4.41,0,0-6.7-13.26-21,2.35,0,0-9.63-10.67-17.84,1.24,0,0-14.9-16.71-26.48-2C162,426.21,150,410.88,136.31,429.63Z"/><path class="cls-13" d="M266.48,428.69c1.75,7.79,6.37,18.27,6.37,18.27s8.73,17.41-.86,28.76c0,0,2.27,16.14-9.68,25.72a35.06,35.06,0,0,1-15,22.13S235,535.29,223.13,536.29c0,0-5.73,4.31-10.54,5.37s-17.41-.17-17.41-.17c-.16,2.1,2.16,11.82-2.05,17.73,0,0,3.92,14.66,1.83,12.85s-3.37-8.73-4.51-12-5.28-16.24,2.68-20.92c.78-.45,3.71-4.79,11.87-6.3,5.63-1.06,12.81,0,16.56,0,0,0,14.75-13.48,21.66-12.72,0,0,5.19-13.93,15-19.6,0,0,1.72-15.11,10.53-24.79,0,0,4.31-19.21,1.81-28-.17-.59-4.13-4.34-5.51-10.15S265.49,424.26,266.48,428.69Z"/><path class="cls-13" d="M149.71,541s3.06,12.76,8.21,14.07c1.65.41,1.13-6.44-.52-9.64a20.28,20.28,0,0,0-4.57-5.51c-.9-13.08-7.27-19.29-7.27-19.29.08-2.92-1-15.37-8.94-22,0,0-3.26-18-8.65-23.23-.38-.36,2-4.16,2.8-11.49.35-3.43-1.24-9.5-1.24-9.5.49-5.4,1.38-12.93-1.17-18,0,0,16.44,11.32,34.42,4,0,0,16.24,6.41,23.26,1.4,0,0,10.69,7.6,21.73,1.77,0,0,12.9,1.33,21.72-7.18,0,0,21.51-4.66,17.22-7.9,0,0-2.55-3.08-16.93,3.91a72.32,72.32,0,0,0-22.37,5.81s-12.06-3.25-19-.49c-1.17.46-12.87-4.68-26.17-.54-.95.3-12.79-5.16-26.29-2.91-5.72,1-9.09-4.56-10.51.24-2,6.91-1.52,17.24,1.29,20.49,0,0-6.24,7.33-2.3,19.69,0,0-2.58,17.16,8.49,25.42,0,0,.88,12.33,8.47,21.93,0,0,.65,15.26,8.38,19.05Z"/><path class="cls-14" d="M161.83,435.32a17,17,0,0,1,11.11,7.54c5.61,9.2,2.65,24.54,1.54,26.59-.56,1-3.37.84-3-1.34,1.18-6.69,1.41-11.48.34-16.35-1.29-5.84-11.38-5.27-11.38-5.27l1.37-11.17Z"/><path class="cls-15" d="M165.8,423.53a12.1,12.1,0,0,0,6-5.65c1.81-3.94,2.72-12.75-7-14.66-21.91-4.33-41.39,15.81-43,37.3-1.89,25.54,23.2,37.8,39.74,28.64,18.15-10.06,3.52-28.27,3.52-28.27S173.92,433.1,165.8,423.53Z"/><path class="cls-16" d="M169.54,449.15c-1,6.33-8.28,12.85-18.81,12.67-16.24-.28-25.21-23.66-17.55-38.53,5.15-10,8.4-13.13,20.17-20.17-16.85,3.05-30.2,19.77-31.5,37.39-1.89,25.55,23.2,37.81,39.74,28.64,10.21-5.65,10-13.88,8-20Z"/><path class="cls-14" d="M235.26,435.32a17,17,0,0,0-11.11,7.54c-5.61,9.2-2.65,24.54-1.55,26.59.56,1,3.37.84,3-1.34-1.18-6.69-1.41-11.48-.34-16.35,1.29-5.84,11.38-5.27,11.38-5.27l-1.38-11.17Z"/><path class="cls-15" d="M231.29,423.53a12.06,12.06,0,0,1-6-5.65c-1.81-3.94-2.72-12.75,7-14.66,21.91-4.33,41.39,15.81,43,37.3,1.89,25.54-23.2,37.8-39.74,28.64C217.35,459.1,232,440.89,232,440.89S223.17,433.1,231.29,423.53Z"/><path class="cls-16" d="M227.54,449.15c1.05,6.33,8.29,12.85,18.82,12.67,16.23-.28,25.21-23.66,17.55-38.53-5.15-10-8.4-13.13-20.17-20.17,16.85,3.05,30.2,19.77,31.5,37.39,1.88,25.55-23.2,37.81-39.75,28.64-10.2-5.65-10-13.88-8-20Z"/></svg>