<svg width="158" height="15" viewBox="0 0 158 15" fill="none" xmlns="http://www.w3.org/2000/svg">
<path d="M6.53421 0.281992C8.5352 0.281992 10.1643 0.937183 11.4216 2.24757C12.6788 3.55795 13.3075 5.23134 13.3075 7.26775C13.3075 9.26874 12.6788 10.9421 11.4216 12.2879C10.1643 13.5983 8.52634 14.2535 6.50764 14.2535C5.09101 14.2535 3.85146 13.9436 2.78899 13.3238C1.72652 12.6864 0.956225 11.8275 0.478113 10.7473L2.44369 9.60519C2.72701 10.3489 3.22283 10.9421 3.93115 11.3848C4.63946 11.8098 5.4983 12.0223 6.50764 12.0223C7.65866 12.0223 8.62374 11.6947 9.40288 11.0395C10.182 10.3666 10.6779 9.47238 10.8903 8.35678H4.96706V6.17871H10.8903C10.6779 5.06312 10.182 4.17772 9.40288 3.52253C8.64144 2.84963 7.69407 2.51318 6.56077 2.51318C5.62225 2.51318 4.79883 2.72568 4.09052 3.15067C3.39991 3.57566 2.88638 4.16002 2.54993 4.90375L0.557798 3.76159C1.08903 2.68141 1.88589 1.83143 2.94836 1.21166C4.01083 0.591879 5.20612 0.281992 6.53421 0.281992ZM19.7908 7.05525L26.3516 13.9082H23.4829L17.4268 7.61305V13.9082H15.116V0.627295H17.4268V6.49746L23.1642 0.627295H26.1391L19.7908 7.05525ZM37.5609 12.2348C36.2151 13.5806 34.5594 14.2535 32.5938 14.2535C30.6283 14.2535 28.9726 13.5806 27.6268 12.2348C26.281 10.889 25.6081 9.23332 25.6081 7.26775C25.6081 5.30217 26.281 3.64649 27.6268 2.30069C28.9726 0.954891 30.6283 0.281992 32.5938 0.281992C34.5594 0.281992 36.2151 0.954891 37.5609 2.30069C38.9244 3.6642 39.6062 5.31988 39.6062 7.26775C39.6062 9.21562 38.9244 10.8713 37.5609 12.2348ZM32.5938 11.9958C33.9219 11.9958 35.0375 11.5442 35.9406 10.6411C36.8437 9.738 37.2953 8.61355 37.2953 7.26775C37.2953 5.92195 36.8437 4.7975 35.9406 3.8944C35.0375 2.9913 33.9219 2.53975 32.5938 2.53975C31.2835 2.53975 30.1767 2.9913 29.2736 3.8944C28.3705 4.7975 27.919 5.92195 27.919 7.26775C27.919 8.61355 28.3705 9.738 29.2736 10.6411C30.1767 11.5442 31.2835 11.9958 32.5938 11.9958Z" fill="#4A860B"/>
<path d="M49.2365 3.8944C48.2448 3.8944 47.4037 4.26626 46.7131 5.00999C46.0225 5.73602 45.6772 6.62141 45.6772 7.66618C45.6772 8.53386 45.9605 9.25103 46.5272 9.81768C47.0938 10.3666 47.8198 10.6411 48.7052 10.6411C49.3427 10.6411 49.9359 10.4906 50.4849 10.1895C51.0515 9.88851 51.5031 9.46353 51.8395 8.91458L55.1598 10.9333C54.416 12.0312 53.451 12.89 52.2645 13.5098C51.0781 14.1118 49.8031 14.4129 48.4396 14.4129C46.4918 14.4129 44.8715 13.8108 43.5788 12.6067C42.3038 11.3848 41.6664 9.83539 41.6664 7.95836C41.6664 5.798 42.4278 3.95638 43.9507 2.4335C45.4913 0.892913 47.3417 0.12262 49.5021 0.12262C51.1135 0.12262 52.5301 0.538755 53.752 1.37103C54.9738 2.2033 55.7972 3.30118 56.2222 4.66469L52.3176 6.09903C52.1406 5.42613 51.7687 4.89489 51.202 4.50532C50.6531 4.09804 49.9979 3.8944 49.2365 3.8944ZM64.1057 3.86784C63.0786 3.86784 62.211 4.2397 61.5026 4.98343C60.7943 5.70946 60.4402 6.586 60.4402 7.61305C60.4402 8.49845 60.7412 9.22447 61.3433 9.79112C61.9453 10.3401 62.6891 10.6145 63.5745 10.6145C64.6015 10.6145 65.4692 10.2515 66.1775 9.5255C66.8858 8.78177 67.24 7.89638 67.24 6.86932C67.24 5.98393 66.939 5.26676 66.3369 4.71781C65.7348 4.15116 64.9911 3.86784 64.1057 3.86784ZM56.4293 7.93179C56.4293 5.77143 57.1996 3.92981 58.7402 2.40694C60.2808 0.866351 62.1578 0.0960581 64.3713 0.0960581C66.3192 0.0960581 67.9483 0.70698 69.2587 1.92882C70.5868 3.13296 71.2508 4.67354 71.2508 6.55058C71.2508 8.71094 70.4805 10.5614 68.9399 12.102C67.3994 13.6249 65.5223 14.3863 63.3088 14.3863C61.361 14.3863 59.723 13.7842 58.3949 12.5801C57.0845 11.3583 56.4293 9.80883 56.4293 7.93179ZM79.569 5.06312C79.569 4.77979 79.4362 4.54959 79.1706 4.37251C78.905 4.17772 78.5685 4.08033 78.1613 4.08033C77.5415 4.08033 77.0457 4.31939 76.6738 4.7975L73.1676 2.80536C73.7697 1.9908 74.5311 1.35332 75.452 0.892913C76.3905 0.414801 77.3998 0.175744 78.48 0.175744C79.9675 0.175744 81.207 0.565317 82.1987 1.34446C83.1903 2.1059 83.6861 3.05327 83.6861 4.18658C83.6861 4.89489 83.4913 5.55894 83.1018 6.17871C82.7122 6.79849 82.1898 7.26775 81.5346 7.58649C81.9596 7.88752 82.2872 8.28595 82.5174 8.78177C82.7653 9.25989 82.8893 9.77341 82.8893 10.3224C82.8893 11.5088 82.3669 12.4916 81.3221 13.2707C80.2951 14.0322 79.0024 14.4129 77.4441 14.4129C75.9566 14.4129 74.6551 14.0764 73.5395 13.4035C72.4239 12.7129 71.6802 11.7833 71.3083 10.6145L75.3988 9.25989C75.5228 9.64946 75.7707 9.9682 76.1426 10.2161C76.5321 10.464 76.9748 10.588 77.4706 10.588C77.9133 10.588 78.2852 10.4906 78.5862 10.2958C78.905 10.101 79.0644 9.86195 79.0644 9.57863C79.0644 9.34842 78.9581 9.15364 78.7456 8.99427C78.5331 8.81719 78.2764 8.72865 77.9753 8.72865H76.2488L76.4613 5.9131H78.48C78.7987 5.9131 79.0555 5.83341 79.2503 5.67404C79.4628 5.51467 79.569 5.31103 79.569 5.06312ZM83.5817 13.9082L85.9192 0.627295H89.9034L89.0535 5.38186H94.419L95.2689 0.627295H99.2532L96.9158 13.9082H92.9315L93.7815 9.10051H88.416L87.566 13.9082H83.5817ZM105.826 0.308553C107.42 0.308553 108.784 0.777812 109.917 1.71633C111.05 2.65485 111.617 3.78815 111.617 5.11624C111.617 5.34644 111.59 5.57665 111.537 5.80685L110.156 13.9082H106.145L107.022 8.75521L104.498 8.91458C103.489 8.98541 102.984 9.31301 102.984 9.89737C102.984 10.4994 103.471 10.8005 104.445 10.8005C105.136 10.8005 105.711 10.6411 106.172 10.3224C106.632 9.98591 106.907 9.53436 106.995 8.96771H107.898C107.65 10.4906 107.039 11.739 106.065 12.7129C105.092 13.6691 103.949 14.1473 102.639 14.1473C101.541 14.1473 100.647 13.802 99.9563 13.1113C99.2657 12.4207 98.9204 11.5265 98.9204 10.4286C98.9204 9.15364 99.3896 8.11773 100.328 7.32087C101.284 6.50631 102.542 6.05476 104.1 5.96622L107.58 5.72716V5.59435C107.597 5.50582 107.606 5.43498 107.606 5.38186C107.606 4.95687 107.42 4.60271 107.048 4.31939C106.676 4.01835 106.234 3.86784 105.72 3.86784C105.26 3.86784 104.826 3.99179 104.419 4.2397C104.029 4.4699 103.755 4.77979 103.595 5.16937L99.9563 3.54909C100.487 2.57516 101.284 1.79601 102.347 1.21166C103.427 0.609587 104.587 0.308553 105.826 0.308553ZM111.838 13.9082L114.175 0.627295H118.16L117.31 5.38186H122.675L123.525 0.627295H127.509L125.172 13.9082H121.188L122.038 9.10051H116.672L115.822 13.9082H111.838ZM140.803 13.9082H136.818L138.279 6.07247L131.559 13.9082H126.991L129.328 0.627295H133.312L131.984 8.19741L138.572 0.627295H143.14L140.803 13.9082ZM153.394 5.27561C153.235 4.81521 152.916 4.4522 152.438 4.18658C151.978 3.90325 151.438 3.76159 150.818 3.76159C150.109 3.76159 149.472 3.92096 148.905 4.2397C148.339 4.55844 147.923 5.00114 147.657 5.56779H153.474C153.439 5.42613 153.412 5.32874 153.394 5.27561ZM157.352 6.57714C157.352 7.19692 157.263 7.88752 157.086 8.64896H147.338C147.444 9.26874 147.772 9.77341 148.321 10.163C148.888 10.5349 149.578 10.7208 150.393 10.7208C151.013 10.7208 151.579 10.588 152.093 10.3224C152.624 10.039 153.04 9.65831 153.341 9.1802L156.582 11.3051C155.006 13.3593 152.89 14.3863 150.233 14.3863C148.197 14.3863 146.515 13.7665 145.187 12.527C143.876 11.2874 143.221 9.71144 143.221 7.79899C143.221 5.67404 143.956 3.85898 145.426 2.35381C146.913 0.848643 148.711 0.0960581 150.818 0.0960581C152.677 0.0960581 154.227 0.715834 155.466 1.95539C156.723 3.17723 157.352 4.71781 157.352 6.57714Z" fill="#B4D21C"/>
</svg>
